<svg xmlns="http://www.w3.org/2000/svg" width="1672" height="941" viewBox="0 0 1672 941">
<defs>
  <linearGradient id="bg" x1="0" y1="0" x2="1" y2="1"><stop stop-color="#f7fbff"/><stop offset="1" stop-color="#eaf3fb"/></linearGradient>
  <linearGradient id="blue" x1="0" y1="0" x2="1" y2="1"><stop stop-color="#1476ff"/><stop offset="1" stop-color="#2e8bff"/></linearGradient>
  <pattern id="grid" width="34" height="34" patternUnits="userSpaceOnUse"><path d="M34 0H0V34" fill="none" stroke="#d9e6f4" stroke-width="1"/></pattern>
  <pattern id="checker" width="34" height="34" patternUnits="userSpaceOnUse"><rect width="34" height="34" fill="#f6f9ff"/><rect width="17" height="17" fill="#d9e4f1"/><rect x="17" y="17" width="17" height="17" fill="#d9e4f1"/></pattern>
  <filter id="shadow"><feDropShadow dx="0" dy="3" stdDeviation="8" flood-color="#91abc4" flood-opacity=".18"/></filter>
</defs>
<rect width="1672" height="941" fill="url(#bg)"/>
<!-- top bar -->
<rect width="1672" height="52" fill="#f5faff"/>
<circle cx="43" cy="26" r="16" fill="#1476ff"/><circle cx="43" cy="26" r="8" fill="#bfe1ff"/><path d="M43 10A16 16 0 0 1 59 26H43Z" fill="#fff"/>
<text x="70" y="32" font-family="Arial,Microsoft YaHei" font-size="20" font-weight="700" fill="#102b5c">OptiQubo</text><path d="M180 14v24" stroke="#9eb4cc"/><text x="205" y="32" font-family="Arial,Microsoft YaHei" font-size="18" fill="#102b5c">设置</text>
<text x="1395" y="33" font-size="24" fill="#102b5c">☼</text><rect x="1428" y="14" width="45" height="24" rx="12" fill="#1476ff"/><circle cx="1461" cy="26" r="9" fill="#fff"/><path d="M1489 14v24" stroke="#9eb4cc"/><text x="1505" y="34" font-size="24" fill="#102b5c">⚙</text><path d="M1555 26h18M1591 19v14h14V19M1640 18l14 16M1654 18l-14 16" stroke="#102b5c" stroke-width="2" fill="none"/>
<!-- left nav -->
<rect x="14" y="62" width="96" height="826" rx="15" fill="#f3f9fe" stroke="#dbe9f5"/>
<g font-family="Arial,Microsoft YaHei" text-anchor="middle" fill="#19366c"><text x="62" y="111" font-size="31">⌂</text><text x="62" y="140" font-size="13">首页</text><text x="62" y="198" font-size="27">◇</text><text x="62" y="227" font-size="13">QUBO 求解</text><text x="62" y="291" font-size="29">♧</text><text x="62" y="320" font-size="13">经典求解</text><text x="62" y="386" font-size="28">▥</text><text x="62" y="415" font-size="13">结果分析</text></g>
<rect x="17" y="470" width="90" height="92" rx="9" fill="#dcebff"/><rect x="17" y="470" width="5" height="92" rx="3" fill="#1476ff"/><text x="62" y="511" text-anchor="middle" font-size="28" fill="#1476ff">⚙</text><text x="62" y="540" text-anchor="middle" font-size="13" font-family="Arial,Microsoft YaHei" fill="#1476ff">设置</text><text x="62" y="852" text-anchor="middle" font-size="22" fill="#19366c">?</text><text x="62" y="874" text-anchor="middle" font-size="12" font-family="Arial,Microsoft YaHei" fill="#19366c">帮助</text>
<!-- secondary nav -->
<rect x="123" y="62" width="225" height="826" rx="12" fill="#f8fbff" stroke="#dce9f5" filter="url(#shadow)"/><text x="174" y="105" font-family="Arial,Microsoft YaHei" font-size="22" font-weight="700" fill="#102b5c">⚙  设置</text>
<rect x="135" y="125" width="201" height="50" rx="8" fill="#dcebff"/><rect x="135" y="125" width="5" height="50" rx="3" fill="#1476ff"/><text x="177" y="157" font-family="Arial,Microsoft YaHei" font-size="16" fill="#1476ff">◎  对齐</text><text x="177" y="213" font-family="Arial,Microsoft YaHei" font-size="16" fill="#19366c">◉  标定</text><text x="177" y="269" font-family="Arial,Microsoft YaHei" font-size="16" fill="#19366c">▣  设备与系统</text>
<!-- main top card -->
<rect x="362" y="62" width="1296" height="440" rx="13" fill="#fff" stroke="#d9e7f3" filter="url(#shadow)"/><text x="385" y="103" font-family="Arial,Microsoft YaHei" font-size="22" font-weight="700" fill="#102b5c">⌖  对齐测试与实时预览</text>
<text x="385" y="137" font-family="Arial,Microsoft YaHei" font-size="14" fill="#56708f">对齐模式</text><rect x="458" y="119" width="125" height="31" rx="5" fill="#fff" stroke="#bcd0e4"/><text x="475" y="140" font-family="Arial,Microsoft YaHei" font-size="14" fill="#19366c">十字靶标⌄</text><text x="602" y="137" font-family="Arial,Microsoft YaHei" font-size="14" fill="#56708f">图案尺寸</text><rect x="672" y="119" width="62" height="31" rx="5" fill="#fff" stroke="#bcd0e4"/><text x="688" y="140" font-size="14" fill="#19366c">1024</text><text x="742" y="137" font-size="14" fill="#56708f">×</text><rect x="755" y="119" width="62" height="31" rx="5" fill="#fff" stroke="#bcd0e4"/><text x="771" y="140" font-size="14" fill="#19366c">768</text><text x="836" y="137" font-size="14" fill="#56708f">扫描步长</text><rect x="904" y="119" width="68" height="31" rx="5" fill="#fff" stroke="#bcd0e4"/><text x="925" y="140" font-size="14" fill="#19366c">1 px⌄</text><text x="992" y="137" font-size="14" fill="#56708f">采集帧数</text><rect x="1061" y="119" width="56" height="31" rx="5" fill="#fff" stroke="#bcd0e4"/><text x="1082" y="140" font-size="14" fill="#19366c">16</text><rect x="1140" y="116" width="113" height="37" rx="6" fill="url(#blue)"/><text x="1158" y="140" font-family="Arial,Microsoft YaHei" font-size="14" fill="#fff">▶  开始对齐</text><rect x="1264" y="116" width="88" height="37" rx="6" fill="#f04e5e"/><text x="1285" y="140" font-family="Arial,Microsoft YaHei" font-size="14" fill="#fff">■  停止</text><rect x="1380" y="125" width="220" height="12" rx="6" fill="#e3edf7"/><rect x="1380" y="125" width="144" height="12" rx="6" fill="#1476ff"/><text x="1608" y="137" font-size="13" fill="#19366c">66%</text>
<!-- preview -->
<rect x="385" y="171" width="780" height="300" rx="8" fill="#f8fbff" stroke="#d8e6f2"/><text x="406" y="199" font-family="Arial,Microsoft YaHei" font-size="15" font-weight="700" fill="#19366c">SLM / DMD 叠加预览</text><text x="1019" y="199" font-size="13" fill="#56708f">图案 08　帧 16 / 24　60 fps</text><rect x="407" y="215" width="735" height="237" fill="url(#grid)" stroke="#c7d8e8"/><rect x="545" y="245" width="464" height="175" fill="none" stroke="#2b83ff" stroke-width="3"/><rect x="584" y="264" width="410" height="152" fill="url(#checker)" opacity=".65" stroke="#863dce" stroke-width="3" transform="rotate(-3 789 340)"/><path d="M776 230v220M470 340h660" stroke="#f0b429" stroke-dasharray="8 7" stroke-width="2"/><path d="M780 320v40M760 340h40" stroke="#22ba70" stroke-width="4"/><circle cx="780" cy="340" r="9" fill="none" stroke="#22ba70" stroke-width="3"/><text x="421" y="438" font-size="12" fill="#2b83ff">SLM 有效区域</text><text x="1003" y="438" font-size="12" fill="#863dce">DMD 投影区域</text>
<!-- status -->
<rect x="1185" y="171" width="438" height="300" rx="8" fill="#fff" stroke="#d8e6f2"/><text x="1208" y="204" font-family="Arial,Microsoft YaHei" font-size="16" font-weight="700" fill="#19366c">▣  实时状态</text><g font-family="Arial,Microsoft YaHei" font-size="14" fill="#56708f"><text x="1208" y="239">SLM 状态</text><text x="1420" y="239" fill="#21a366">● 已连接</text><text x="1208" y="272">DMD 状态</text><text x="1420" y="272" fill="#21a366">● 已连接</text><text x="1208" y="305">采集设备</text><text x="1420" y="305" fill="#19366c">QCMOS 相机</text><text x="1208" y="338">中心偏差</text><text x="1420" y="338" fill="#19366c">Δx +1.2 px　Δy −0.6 px</text><text x="1208" y="371">旋转 / 缩放</text><text x="1420" y="371" fill="#19366c">−0.32°　1.004×</text><text x="1208" y="404">对齐置信度</text><text x="1420" y="404" fill="#1476ff" font-weight="700">98.4%</text></g><path d="M1208 430h380" stroke="#dbe7f2"/><text x="1208" y="453" font-family="Arial,Microsoft YaHei" font-size="13" fill="#56708f">当前状态：正在采集并分析对齐图案</text>
<!-- bottom -->
<rect x="362" y="520" width="1296" height="368" rx="13" fill="#fff" stroke="#d9e7f3" filter="url(#shadow)"/><text x="385" y="560" font-family="Arial,Microsoft YaHei" font-size="22" font-weight="700" fill="#102b5c">⌗  对齐参数结果</text><rect x="385" y="580" width="480" height="270" rx="8" fill="#fbfdff" stroke="#d8e6f2"/><text x="410" y="612" font-family="Arial,Microsoft YaHei" font-size="15" font-weight="700" fill="#19366c">二维仿射变换</text><text x="410" y="648" font-size="14" fill="#56708f">水平偏移 Δx</text><text x="650" y="648" font-size="15" fill="#19366c">+1.20 px</text><text x="410" y="680" font-size="14" fill="#56708f">垂直偏移 Δy</text><text x="650" y="680" font-size="15" fill="#19366c">−0.60 px</text><text x="410" y="712" font-size="14" fill="#56708f">旋转角度 θ</text><text x="650" y="712" font-size="15" fill="#19366c">−0.32°</text><text x="410" y="744" font-size="14" fill="#56708f">缩放 sx / sy</text><text x="650" y="744" font-size="15" fill="#19366c">1.004 / 0.998</text><text x="410" y="776" font-size="14" fill="#56708f">重叠率 / RMSE</text><text x="650" y="776" font-size="15" fill="#19366c">97.8% / 0.82 px</text><text x="410" y="818" font-size="12" fill="#7890aa">A = [ 1.004  0.006 ; −0.006  0.998 ]</text>
<rect x="888" y="580" width="330" height="270" rx="8" fill="#fbfdff" stroke="#d8e6f2"/><text x="913" y="612" font-family="Arial,Microsoft YaHei" font-size="15" font-weight="700" fill="#19366c">✓  对齐校验</text><circle cx="1053" cy="675" r="38" fill="#e4f8eb"/><text x="1053" y="684" text-anchor="middle" font-size="31" fill="#21a366">✓</text><text x="1053" y="735" text-anchor="middle" font-family="Arial,Microsoft YaHei" font-size="17" font-weight="700" fill="#21a366">校验通过</text><text x="913" y="770" font-family="Arial,Microsoft YaHei" font-size="13" fill="#56708f">重叠率 ≥ 95%　中心偏差 ≤ 2 px</text><text x="913" y="796" font-family="Arial,Microsoft YaHei" font-size="13" fill="#56708f">RMSE ≤ 1.5 px</text><rect x="913" y="815" width="120" height="28" rx="5" fill="#edf5ff" stroke="#b6d0ed"/><text x="932" y="834" font-family="Arial,Microsoft YaHei" font-size="13" fill="#1476ff">重新计算</text>
<rect x="1242" y="580" width="381" height="270" rx="8" fill="#fbfdff" stroke="#d8e6f2"/><text x="1267" y="612" font-family="Arial,Microsoft YaHei" font-size="15" font-weight="700" fill="#19366c">▤  配置文件操作</text><text x="1267" y="655" font-family="Arial,Microsoft YaHei" font-size="13" fill="#56708f">当前配置</text><text x="1267" y="680" font-family="Arial,Microsoft YaHei" font-size="14" fill="#19366c">alignment_20260915.json</text><rect x="1267" y="708" width="145" height="34" rx="6" fill="#fff" stroke="#b6d0ed"/><text x="1290" y="730" font-family="Arial,Microsoft YaHei" font-size="13" fill="#1476ff">⇧ 导入配置</text><rect x="1425" y="708" width="145" height="34" rx="6" fill="#1476ff"/><text x="1448" y="730" font-family="Arial,Microsoft YaHei" font-size="13" fill="#fff">▣ 保存配置</text><text x="1267" y="785" font-family="Arial,Microsoft YaHei" font-size="13" fill="#56708f">应用前保留旧配置，可随时恢复</text><rect x="1267" y="805" width="303" height="34" rx="6" fill="#21a366"/><text x="1370" y="827" text-anchor="middle" font-family="Arial,Microsoft YaHei" font-size="14" fill="#fff">应用当前参数</text>
<!-- footer -->
<path d="M0 906h1672" stroke="#d0e0ed"/><text x="24" y="929" font-family="Arial,Microsoft YaHei" font-size="12" fill="#56708f">OptiQubo　v1.0.0　|　基于光学计算的组合优化求解平台</text><text x="1267" y="929" font-family="Arial,Microsoft YaHei" font-size="12" fill="#56708f">设备：已连接　|　温度：25.3 ℃　|　2026-09-15 14:21:15</text>
</svg>
